<?xml version="1.0" encoding="UTF-8" standalone="no"?>
<!DOCTYPE svg PUBLIC "-//W3C//DTD SVG 1.1//EN" "http://www.w3.org/Graphics/SVG/1.1/DTD/svg11.dtd">
<svg width="100%" height="100%" viewBox="0 0 2020 2020" version="1.1" xmlns="http://www.w3.org/2000/svg" xmlns:xlink="http://www.w3.org/1999/xlink" xml:space="preserve" xmlns:covid-19="https://quarantine.country/covid-19" style="fill-rule:evenodd;clip-rule:evenodd;stroke-linejoin:round;stroke-miterlimit:2;">
    <g transform="matrix(2.71151,0,0,2.71151,-1674.4,-779.599)">
        <g transform="matrix(-25.4371,0.583058,-0.583058,-25.4371,1328.26,983.103)">
            <circle cx="13" cy="13" r="8" style="fill:rgb(206,212,222);"/>
        </g>
        <g transform="matrix(1,0,0,1,-7,-1.13687e-13)">
			<a href="https://quarantine.country/coronavirus/svg" title="covid-19" rel="alternate">
			<path d="M997,437.8C1119.63,437.8 1219.2,537.365 1219.2,660C1219.2,782.635 1119.63,882.2 997,882.2C874.365,882.2 774.8,782.635 774.8,660C774.8,537.365 874.365,437.8 997,437.8ZM997,467.118C1103.45,467.118 1189.88,553.546 1189.88,660C1189.88,766.454 1103.45,852.882 997,852.882C890.546,852.882 804.118,766.454 804.118,660C804.118,553.546 890.546,467.118 997,467.118Z" style="fill:rgb(232,234,239);"/></a>
        </g>
        <g transform="matrix(0.368798,0,0,0.368798,617.516,287.515)">
            <path d="M984.72,1571.49C977.626,1571.49 971.867,1577.25 971.867,1584.35L971.867,1632.34C971.605,1638.59 969.663,1643.84 965.444,1647.72L912.913,1698.27C902.661,1708.13 897.907,1721.58 898.729,1734.76C898.668,1735.78 898.638,1736.82 898.638,1737.86C898.638,1766.78 922.115,1790.26 951.034,1790.26L1068.96,1790.26C1097.88,1790.26 1121.35,1766.78 1121.35,1737.86C1121.35,1736.82 1121.32,1735.78 1121.26,1734.76C1122.08,1721.58 1117.33,1708.13 1107.08,1698.27L1054.55,1647.72C1050.33,1643.84 1048.39,1638.59 1048.12,1632.34L1048.12,1584.35C1048.12,1577.25 1042.36,1571.49 1035.27,1571.49L984.72,1571.49ZM773.363,1519.74C767.217,1517.2 760.161,1520.12 757.617,1526.27L749.737,1545.31C745.19,1555.65 736.615,1557.42 728.023,1560.75L685.981,1576.03C673.559,1580.9 658.482,1588.31 653.086,1599.45C652.664,1600.32 652.266,1601.21 651.892,1602.11C641.52,1627.17 653.445,1655.94 678.509,1666.31L780.689,1708.6C805.768,1718.98 834.533,1707.06 844.906,1682C845.279,1681.09 845.625,1680.19 845.944,1679.27C849.994,1667.57 844.57,1651.68 839.214,1639.45L820.272,1598.93C816.54,1590.5 811.731,1583.19 815.824,1572.66L823.705,1553.62C826.249,1547.48 823.328,1540.42 817.173,1537.87L773.363,1519.74ZM1246.91,1519.61C1253.06,1517.07 1260.12,1519.99 1262.66,1526.13L1270.55,1545.17C1275.11,1555.51 1283.68,1557.27 1292.28,1560.59L1334.33,1575.85C1346.75,1580.72 1361.83,1588.12 1367.23,1599.26C1367.66,1600.13 1368.06,1601.01 1368.43,1601.91C1378.82,1626.97 1366.91,1655.74 1341.85,1666.13L1239.69,1708.48C1214.62,1718.87 1185.85,1706.96 1175.46,1681.91C1175.09,1681.01 1174.74,1680.1 1174.42,1679.18C1170.36,1667.49 1175.78,1651.59 1181.13,1639.36L1200.05,1598.83C1203.78,1590.4 1208.58,1583.08 1204.48,1572.56L1196.59,1553.52C1194.04,1547.38 1196.96,1540.32 1203.11,1537.77L1246.91,1519.61ZM595.088,1389.16C590.072,1384.14 581.927,1384.14 576.911,1389.16L542.977,1423.09C538.366,1427.33 533.287,1429.67 527.554,1429.43L454.669,1428.03C440.445,1427.75 427.577,1433.9 418.838,1443.8C418.068,1444.48 417.316,1445.19 416.58,1445.93C396.131,1466.38 396.131,1499.58 416.58,1520.03L499.963,1603.41C520.412,1623.86 553.614,1623.86 574.063,1603.41C574.8,1602.68 575.509,1601.92 576.193,1601.15C586.093,1592.41 592.239,1579.55 591.965,1565.32L590.558,1492.44C590.324,1486.71 592.658,1481.63 596.899,1477.02L630.832,1443.08C635.848,1438.07 635.848,1429.92 630.832,1424.9L595.088,1389.16ZM1424.91,1389.16C1429.93,1384.14 1438.07,1384.14 1443.09,1389.16L1477.02,1423.09C1481.63,1427.33 1486.71,1429.67 1492.45,1429.43L1565.33,1428.03C1579.56,1427.75 1592.42,1433.9 1601.16,1443.8C1601.93,1444.48 1602.68,1445.19 1603.42,1445.93C1623.87,1466.38 1623.87,1499.58 1603.42,1520.03L1520.04,1603.41C1499.59,1623.86 1466.39,1623.86 1445.94,1603.41C1445.2,1602.68 1444.49,1601.92 1443.81,1601.15C1433.91,1592.41 1427.76,1579.55 1428.04,1565.32L1429.44,1492.44C1429.68,1486.71 1427.34,1481.63 1423.1,1477.02L1389.17,1443.08C1384.15,1438.07 1384.15,1429.92 1389.17,1424.9L1424.91,1389.16ZM940.692,1460.43C937.628,1460.43 934.544,1460.09 931.5,1459.38L931.451,1459.37L931.394,1459.36C927.087,1458.36 923.03,1456.67 919.359,1454.43C913.386,1450.79 908.664,1445.85 905.34,1440.18C901.756,1434.11 899.694,1427.04 899.675,1419.5L899.675,1419.32C899.675,1416.08 900.06,1412.82 900.841,1409.61L900.85,1409.59L900.869,1409.52C901.814,1405.66 903.317,1402.01 905.273,1398.67L974.289,1279.13C976.332,1275.52 978.933,1272.19 982.065,1269.29C984.329,1267.19 986.805,1265.38 989.426,1263.87L989.465,1263.84L989.59,1263.77C996.026,1260.08 1003.06,1258.33 1010,1258.34C1016.93,1258.33 1023.97,1260.08 1030.4,1263.77L1030.53,1263.84L1030.57,1263.87C1033.19,1265.38 1035.66,1267.19 1037.93,1269.29C1041.06,1272.19 1043.66,1275.52 1045.7,1279.13L1114.72,1398.67C1116.68,1402.01 1118.18,1405.66 1119.12,1409.52L1119.14,1409.59L1119.15,1409.61C1119.93,1412.82 1120.32,1416.08 1120.32,1419.32L1120.32,1419.5C1120.29,1427.04 1118.23,1434.11 1114.65,1440.18C1111.33,1445.85 1106.61,1450.79 1100.63,1454.43C1096.95,1456.67 1092.91,1458.36 1088.6,1459.36L1088.54,1459.37L1088.49,1459.38C1085.45,1460.09 1082.37,1460.43 1079.3,1460.43L940.692,1460.43ZM1279.49,1377.51C1277.32,1379.67 1274.9,1381.61 1272.25,1383.27L1272.21,1383.3L1272.16,1383.33C1268.4,1385.66 1264.34,1387.34 1260.16,1388.35C1253.36,1390 1246.53,1389.84 1240.17,1388.18C1233.35,1386.43 1226.89,1382.89 1221.54,1377.57L1221.42,1377.44C1219.13,1375.15 1217.09,1372.58 1215.37,1369.75L1215.37,1369.73L1215.33,1369.67C1213.27,1366.27 1211.76,1362.63 1210.77,1358.88L1175.05,1225.56C1173.94,1221.56 1173.43,1217.37 1173.59,1213.1C1173.71,1210.02 1174.18,1206.98 1174.96,1204.06L1174.97,1204.01L1175.01,1203.88C1176.95,1196.71 1180.68,1190.5 1185.6,1185.6C1190.5,1180.69 1196.71,1176.96 1203.87,1175.02L1204.01,1174.98L1204.05,1174.96C1206.97,1174.18 1210.01,1173.71 1213.09,1173.6C1217.36,1173.43 1221.55,1173.95 1225.55,1175.06L1358.88,1210.78C1362.62,1211.76 1366.26,1213.28 1369.66,1215.34L1369.73,1215.38L1369.75,1215.38C1372.57,1217.1 1375.14,1219.13 1377.44,1221.42L1377.56,1221.55C1382.88,1226.9 1386.41,1233.36 1388.18,1240.18C1389.84,1246.54 1389.99,1253.37 1388.34,1260.17C1387.33,1264.36 1385.66,1268.41 1383.32,1272.16L1383.29,1272.21L1383.26,1272.26C1381.61,1274.91 1379.67,1277.33 1377.5,1279.5L1279.49,1377.51ZM642.484,1279.49C640.317,1277.32 638.38,1274.9 636.723,1272.25L636.697,1272.21L636.665,1272.16C634.329,1268.4 632.652,1264.34 631.643,1260.16C629.992,1253.36 630.148,1246.53 631.806,1240.17C633.563,1233.35 637.101,1226.89 642.421,1221.55L642.549,1221.42C644.84,1219.13 647.417,1217.09 650.24,1215.38L650.259,1215.37L650.326,1215.33C653.721,1213.27 657.361,1211.76 661.108,1210.78L794.435,1175.05C798.433,1173.94 802.626,1173.43 806.892,1173.59C809.977,1173.71 813.011,1174.18 815.935,1174.96L815.979,1174.97L816.115,1175.01C823.277,1176.95 829.489,1180.69 834.387,1185.6C839.299,1190.5 843.035,1196.71 844.976,1203.87L845.016,1204.01L845.027,1204.05C845.809,1206.98 846.278,1210.01 846.394,1213.09C846.558,1217.36 846.044,1221.55 844.933,1225.55L809.21,1358.88C808.229,1362.62 806.715,1366.26 804.655,1369.66L804.616,1369.73L804.61,1369.75C802.892,1372.57 800.86,1375.14 798.568,1377.44L798.44,1377.56C793.087,1382.88 786.632,1386.42 779.813,1388.18C773.455,1389.84 766.622,1389.99 759.825,1388.34C755.634,1387.33 751.582,1385.66 747.827,1383.32L747.777,1383.29L747.735,1383.26C745.086,1381.61 742.663,1379.67 740.497,1377.5L642.484,1279.49ZM482.224,1203.12C479.677,1196.97 472.619,1194.05 466.475,1196.6L447.438,1204.49C436.911,1208.59 429.595,1203.78 421.168,1200.05L380.634,1181.13C368.406,1175.79 352.506,1170.37 340.812,1174.43C339.898,1174.75 338.99,1175.09 338.089,1175.47C313.033,1185.85 301.124,1214.63 311.511,1239.68L353.859,1341.84C364.253,1366.91 393.026,1378.82 418.082,1368.43C418.984,1368.06 419.87,1367.66 420.741,1367.24C431.878,1361.84 439.281,1346.76 444.141,1334.33L459.4,1292.28C462.72,1283.68 464.489,1275.11 474.828,1270.56L493.864,1262.67C500.009,1260.12 502.932,1253.07 500.381,1246.91L482.224,1203.12ZM1537.88,1202.82C1540.42,1196.68 1547.48,1193.75 1553.62,1196.3L1572.66,1204.18C1583.19,1208.27 1590.51,1203.45 1598.93,1199.72L1639.46,1180.78C1651.68,1175.43 1667.58,1170 1679.28,1174.06C1680.19,1174.38 1681.1,1174.72 1682,1175.09C1707.06,1185.46 1718.99,1214.23 1708.61,1239.3L1666.32,1341.48C1655.94,1366.56 1627.17,1378.48 1602.11,1368.11C1601.21,1367.73 1600.33,1367.34 1599.45,1366.92C1588.31,1361.51 1580.9,1346.44 1576.04,1334.01L1560.75,1291.97C1557.43,1283.38 1555.65,1274.81 1545.31,1270.26L1526.27,1262.38C1520.13,1259.84 1517.2,1252.79 1519.75,1246.63L1537.88,1202.82ZM1571.49,984.723C1571.49,977.629 1577.25,971.87 1584.34,971.87L1632.33,971.87C1638.59,971.607 1643.83,969.666 1647.72,965.447L1698.26,912.915C1708.13,902.663 1721.57,897.91 1734.75,898.732C1735.78,898.671 1736.81,898.64 1737.86,898.64C1766.78,898.64 1790.25,922.118 1790.25,951.037L1790.25,1068.96C1790.25,1097.88 1766.78,1121.36 1737.86,1121.36C1736.81,1121.36 1735.78,1121.33 1734.75,1121.26C1721.57,1122.09 1708.13,1117.33 1698.26,1107.08L1647.72,1054.55C1643.83,1050.33 1638.59,1048.39 1632.33,1048.13L1584.34,1048.13C1577.25,1048.13 1571.49,1042.37 1571.49,1035.27L1571.49,984.723ZM448.503,984.723C448.503,977.629 442.744,971.87 435.65,971.87L387.661,971.87C381.401,971.607 376.159,969.666 372.271,965.447L321.728,912.915C311.864,902.663 298.42,897.91 285.24,898.732C284.211,898.671 283.179,898.64 282.137,898.64C253.218,898.64 229.74,922.118 229.74,951.037L229.74,1068.96C229.74,1097.88 253.218,1121.36 282.137,1121.36C283.179,1121.36 284.211,1121.33 285.24,1121.26C298.42,1122.09 311.864,1117.33 321.728,1107.08L372.271,1054.55C376.159,1050.33 381.401,1048.39 387.661,1048.13L435.65,1048.13C442.744,1048.13 448.503,1042.37 448.503,1035.27L448.503,984.723ZM1460.41,1079.31C1460.41,1082.37 1460.07,1085.46 1459.37,1088.5L1459.36,1088.55L1459.35,1088.61C1458.34,1092.91 1456.66,1096.97 1454.41,1100.64C1450.78,1106.62 1445.83,1111.34 1440.16,1114.66C1434.09,1118.25 1427.03,1120.31 1419.49,1120.33L1419.31,1120.33C1416.07,1120.33 1412.81,1119.94 1409.6,1119.16L1409.58,1119.15L1409.5,1119.13C1405.64,1118.19 1402,1116.68 1398.66,1114.73L1279.12,1045.71C1275.51,1043.67 1272.18,1041.07 1269.28,1037.94C1267.18,1035.67 1265.37,1033.2 1263.85,1030.58L1263.83,1030.54L1263.76,1030.41C1260.07,1023.98 1258.32,1016.94 1258.33,1010C1258.32,1003.07 1260.07,996.033 1263.76,989.597L1263.83,989.471L1263.85,989.433C1265.37,986.812 1267.18,984.336 1269.28,982.071C1272.18,978.94 1275.51,976.339 1279.12,974.296L1398.66,905.279C1402,903.324 1405.64,901.82 1409.5,900.876L1409.58,900.857L1409.6,900.847C1412.81,900.067 1416.07,899.681 1419.31,899.681L1419.49,899.681C1427.03,899.71 1434.1,901.772 1440.16,905.347C1445.83,908.671 1450.77,913.392 1454.41,919.366C1456.66,923.047 1458.34,927.093 1459.35,931.4L1459.36,931.458L1459.37,931.506C1460.07,934.551 1460.41,937.634 1460.41,940.698L1460.41,1079.31ZM559.579,940.692C559.579,937.628 559.922,934.545 560.625,931.5L560.635,931.452L560.648,931.394C561.652,927.087 563.337,923.031 565.581,919.36C569.219,913.386 574.161,908.665 579.83,905.341C585.899,901.757 592.965,899.695 600.507,899.676L600.688,899.676C603.928,899.676 607.187,900.061 610.399,900.841L610.417,900.851L610.491,900.87C614.349,901.815 617.993,903.318 621.337,905.274L740.873,974.29C744.484,976.333 747.813,978.934 750.714,982.066C752.813,984.33 754.627,986.806 756.142,989.427L756.165,989.465L756.233,989.591C759.925,996.027 761.676,1003.06 761.666,1010C761.675,1016.94 759.924,1023.97 756.233,1030.4L756.165,1030.53L756.142,1030.57C754.627,1033.19 752.814,1035.67 750.714,1037.93C747.814,1041.06 744.486,1043.66 740.873,1045.71L621.337,1114.72C617.993,1116.68 614.349,1118.18 610.491,1119.12L610.417,1119.14L610.399,1119.15C607.188,1119.93 603.929,1120.32 600.688,1120.32L600.507,1120.32C592.965,1120.29 585.898,1118.23 579.83,1114.65C574.162,1111.33 569.22,1106.61 565.581,1100.64C563.336,1096.95 561.652,1092.91 560.648,1088.6L560.635,1088.54L560.625,1088.5C559.922,1085.45 559.579,1082.37 559.579,1079.3L559.579,940.692ZM1079.31,908.959C1082.37,908.959 1085.46,909.302 1088.5,910.004L1088.55,910.015L1088.61,910.027C1092.91,911.031 1096.97,912.716 1100.64,914.96C1106.61,918.599 1111.34,923.541 1114.66,929.21C1118.24,935.279 1120.31,942.344 1120.33,949.887L1120.33,950.068C1120.33,953.307 1119.94,956.567 1119.16,959.778L1119.15,959.797L1119.13,959.871C1118.19,963.729 1116.68,967.373 1114.73,970.716L1045.71,1090.25C1043.67,1093.86 1041.07,1097.19 1037.93,1100.09C1035.67,1102.19 1033.19,1104.01 1030.57,1105.52L1030.54,1105.54L1030.41,1105.61C1023.97,1109.31 1016.94,1111.06 1010,1111.05C1003.07,1111.06 996.032,1109.3 989.596,1105.61L989.471,1105.54L989.432,1105.52C986.811,1104.01 984.335,1102.19 982.071,1100.09C978.939,1097.19 976.338,1093.87 974.295,1090.25L905.279,970.716C903.323,967.373 901.82,963.729 900.875,959.871L900.856,959.797L900.847,959.778C900.066,956.568 899.681,953.308 899.681,950.068L899.681,949.887C899.71,942.344 901.771,935.278 905.346,929.21C908.67,923.542 913.391,918.6 919.365,914.96C923.046,912.715 927.093,911.031 931.4,910.027L931.457,910.015L931.506,910.004C934.55,909.302 937.633,908.959 940.697,908.959L1079.31,908.959ZM500.25,773.366C502.794,767.22 499.869,760.164 493.723,757.62L474.682,749.739C464.341,745.192 462.57,736.618 459.245,728.026L443.963,685.984C439.091,673.562 431.683,658.484 420.54,653.089C419.67,652.667 418.784,652.268 417.883,651.895C392.821,641.522 364.054,653.448 353.68,678.512L311.389,780.692C301.009,805.771 312.935,834.536 337.997,844.909C338.899,845.282 339.806,845.628 340.719,845.947C352.418,849.997 368.312,844.573 380.542,839.217L421.064,820.274C429.49,816.543 436.801,811.733 447.329,815.827L466.37,823.708C472.516,826.251 479.571,823.331 482.118,817.175L500.25,773.366ZM1519.6,773.077C1517.05,766.933 1519.97,759.875 1526.12,757.328L1545.15,749.436C1555.49,744.884 1557.26,736.308 1560.58,727.714L1575.84,685.664C1580.7,673.239 1588.1,658.157 1599.24,652.756C1600.11,652.333 1601,651.934 1601.9,651.56C1626.95,641.174 1655.73,653.083 1666.12,678.141L1708.47,780.297C1718.86,805.371 1706.95,834.142 1681.89,844.529C1680.99,844.903 1680.08,845.249 1679.17,845.569C1667.47,849.625 1651.58,844.21 1639.35,838.861L1598.81,819.941C1590.38,816.214 1583.07,811.409 1572.54,815.508L1553.51,823.4C1547.36,825.947 1540.31,823.031 1537.76,816.876L1519.6,773.077ZM1377.51,740.516C1379.67,742.682 1381.61,745.105 1383.27,747.755L1383.29,747.796L1383.33,747.846C1385.66,751.601 1387.34,755.661 1388.35,759.844C1390,766.64 1389.84,773.473 1388.18,779.833C1386.43,786.659 1382.89,793.113 1377.57,798.459L1377.44,798.588C1375.15,800.878 1372.57,802.91 1369.75,804.629L1369.73,804.636L1369.66,804.674C1366.27,806.735 1362.63,808.249 1358.88,809.23L1225.56,844.953C1221.56,846.062 1217.37,846.576 1213.1,846.413C1210.01,846.296 1206.98,845.828 1204.06,845.046L1204.01,845.035L1203.88,844.995C1196.71,843.054 1190.5,839.319 1185.6,834.407C1180.69,829.507 1176.96,823.296 1175.02,816.135L1174.98,815.998L1174.96,815.954C1174.18,813.03 1173.71,809.997 1173.6,806.911C1173.43,802.646 1173.95,798.453 1175.06,794.454L1210.78,661.127C1211.76,657.38 1213.28,653.74 1215.34,650.345L1215.37,650.279L1215.38,650.259C1217.1,647.437 1219.13,644.859 1221.42,642.568L1221.55,642.44C1226.9,637.127 1233.36,633.589 1240.18,631.825C1246.54,630.168 1253.37,630.012 1260.17,631.663C1264.36,632.678 1268.41,634.348 1272.16,636.684L1272.21,636.716L1272.26,636.742C1274.9,638.399 1277.33,640.336 1279.49,642.503L1377.51,740.516ZM740.515,642.5C742.681,640.333 745.104,638.396 747.754,636.739L747.795,636.713L747.845,636.681C751.6,634.345 755.66,632.668 759.843,631.659C766.64,630.008 773.472,630.164 779.832,631.822C786.658,633.579 793.112,637.117 798.459,642.437L798.587,642.565C800.877,644.856 802.91,647.433 804.629,650.256L804.635,650.275L804.674,650.342C806.734,653.737 808.248,657.377 809.229,661.124L844.952,794.451C846.061,798.449 846.575,802.642 846.413,806.908C846.295,809.993 845.827,813.027 845.045,815.951L845.034,815.995L844.994,816.132C843.054,823.293 839.318,829.505 834.406,834.403C829.507,839.315 823.295,843.051 816.134,844.992L815.997,845.032L815.953,845.043C813.029,845.825 809.996,846.294 806.91,846.41C802.645,846.574 798.453,846.06 794.453,844.949L661.126,809.226C657.379,808.245 653.74,806.732 650.344,804.671L650.278,804.632L650.258,804.626C647.436,802.908 644.859,800.876 642.567,798.584L642.439,798.456C637.127,793.103 633.588,786.648 631.825,779.829C630.167,773.471 630.011,766.638 631.662,759.841C632.677,755.651 634.348,751.598 636.683,747.843L636.715,747.793L636.742,747.751C638.398,745.102 640.336,742.679 642.502,740.513L740.515,642.5ZM1079.31,559.58C1082.37,559.58 1085.46,559.923 1088.5,560.625L1088.55,560.636L1088.61,560.648C1092.91,561.652 1096.97,563.338 1100.64,565.582C1106.61,569.22 1111.34,574.162 1114.66,579.831C1118.24,585.9 1120.31,592.966 1120.33,600.508L1120.33,600.689C1120.33,603.929 1119.94,607.188 1119.16,610.399L1119.15,610.418L1119.13,610.492C1118.19,614.35 1116.68,617.994 1114.73,621.337L1045.71,740.874C1043.67,744.485 1041.07,747.814 1037.93,750.715C1035.67,752.814 1033.19,754.628 1030.57,756.142L1030.54,756.166L1030.41,756.234C1023.97,759.926 1016.94,761.677 1010,761.667C1003.07,761.676 996.032,759.925 989.596,756.234L989.471,756.166L989.432,756.142C986.811,754.628 984.335,752.814 982.071,750.715C978.939,747.815 976.338,744.487 974.295,740.874L905.279,621.337C903.323,617.994 901.82,614.35 900.875,610.492L900.856,610.418L900.847,610.399C900.066,607.189 899.681,603.929 899.681,600.689L899.681,600.508C899.71,592.966 901.771,585.899 905.346,579.831C908.67,574.163 913.391,569.221 919.365,565.582C923.046,563.337 927.093,561.652 931.4,560.648L931.457,560.636L931.506,560.625C934.55,559.923 937.633,559.58 940.697,559.58L1079.31,559.58ZM1389.16,595.092C1384.14,590.075 1384.14,581.931 1389.16,576.915L1423.09,542.981C1427.33,538.37 1429.67,533.29 1429.43,527.558L1428.03,454.673C1427.75,440.449 1433.9,427.581 1443.8,418.842C1444.48,418.072 1445.19,417.32 1445.93,416.584C1466.38,396.135 1499.58,396.135 1520.03,416.584L1603.41,499.967C1623.86,520.416 1623.86,553.618 1603.41,574.067C1602.68,574.804 1601.92,575.512 1601.15,576.197C1592.41,586.097 1579.55,592.243 1565.32,591.968L1492.44,590.562C1486.71,590.328 1481.63,592.662 1477.02,596.902L1443.08,630.836C1438.07,635.852 1429.92,635.852 1424.9,630.836L1389.16,595.092ZM630.832,595.092C635.848,590.075 635.848,581.931 630.832,576.915L596.899,542.981C592.658,538.37 590.324,533.29 590.558,527.558L591.964,454.673C592.239,440.449 586.093,427.581 576.193,418.842C575.509,418.072 574.8,417.32 574.063,416.584C553.614,396.135 520.412,396.135 499.963,416.584L416.58,499.967C396.131,520.416 396.131,553.618 416.58,574.067C417.316,574.804 418.068,575.512 418.838,576.197C427.577,586.097 440.445,592.243 454.669,591.968L527.554,590.562C533.286,590.328 538.366,592.662 542.977,596.902L576.911,630.836C581.927,635.852 590.071,635.852 595.088,630.836L630.832,595.092ZM816.88,482.226C823.025,479.679 825.946,472.621 823.399,466.477L815.507,447.44C811.41,436.913 816.221,429.597 819.945,421.17L838.867,380.636C844.206,368.408 849.629,352.508 845.565,340.814C845.248,339.9 844.904,338.992 844.53,338.09C834.144,313.035 805.37,301.125 780.311,311.513L678.155,353.861C653.082,364.255 641.175,393.028 651.562,418.084C651.935,418.986 652.332,419.872 652.752,420.743C658.161,431.879 673.235,439.283 685.67,444.143L727.718,459.402C736.315,462.722 744.885,464.491 749.435,474.83L757.327,493.866C759.874,500.011 766.927,502.934 773.081,500.383L816.88,482.226ZM1202.82,482.12C1196.67,479.576 1193.75,472.52 1196.29,466.374L1204.17,447.333C1208.27,436.804 1203.45,429.49 1199.72,421.065L1180.78,380.542C1175.43,368.317 1170,352.42 1174.06,340.723C1174.37,339.81 1174.72,338.901 1175.09,337.999C1185.46,312.938 1214.23,301.013 1239.29,311.386L1341.47,353.677C1366.55,364.057 1378.48,392.823 1368.1,417.885C1367.73,418.787 1367.33,419.673 1366.91,420.545C1361.51,431.684 1346.44,439.096 1334.01,443.963L1291.97,459.246C1283.38,462.57 1274.81,464.344 1270.26,474.686L1262.38,493.727C1259.84,499.872 1252.79,502.8 1246.63,500.252L1202.82,482.12ZM984.72,448.506C977.626,448.506 971.867,442.747 971.867,435.653L971.867,387.663C971.605,381.404 969.663,376.162 965.444,372.274L912.913,321.731C902.661,311.867 897.907,298.423 898.729,285.243C898.668,284.214 898.638,283.182 898.638,282.14C898.638,253.221 922.115,229.743 951.034,229.743L1068.96,229.743C1097.88,229.743 1121.35,253.221 1121.35,282.14C1121.35,283.182 1121.32,284.214 1121.26,285.243C1122.08,298.423 1117.33,311.867 1107.08,321.731L1054.55,372.274C1050.33,376.162 1048.39,381.404 1048.12,387.663L1048.12,435.653C1048.12,442.747 1042.36,448.506 1035.27,448.506L984.72,448.506Z" style="fill:rgb(239,0,52);"/>
        </g>
    </g>
</svg>
